<?xml version="1.0" encoding="UTF-8" standalone="no"?>
<!DOCTYPE svg PUBLIC "-//W3C//DTD SVG 1.1//EN" "http://www.w3.org/Graphics/SVG/1.1/DTD/svg11.dtd">
<svg width="100%" height="100%" viewBox="0 0 128 128" version="1.1" xmlns="http://www.w3.org/2000/svg" xmlns:xlink="http://www.w3.org/1999/xlink" xml:space="preserve" xmlns:serif="http://www.serif.com/" style="fill-rule:evenodd;clip-rule:evenodd;stroke-linejoin:round;stroke-miterlimit:2;">
    <g transform="matrix(0.887097,0,0,0.887097,7.22581,9)">
        <path d="M11.503,94.983C5.484,85.428 2,74.117 2,62C2,59.653 2.131,57.337 2.385,55.058L15.559,56.528C15.358,58.325 15.256,60.15 15.256,62C15.256,71.521 17.989,80.409 22.719,87.917L11.503,94.983ZM31.017,9.503L38.083,20.719C28.823,26.552 21.654,35.409 17.978,45.903L5.468,41.52C10.14,28.181 19.247,16.918 31.017,9.503ZM84.48,3.468L80.097,15.978C75.057,14.212 69.64,13.256 64,13.256C58.36,13.256 52.943,14.212 47.903,15.978L43.52,3.468C49.933,1.221 56.825,0 64,0C71.175,0 78.067,1.221 84.48,3.468ZM122.532,41.52L110.022,45.903C106.346,35.409 99.176,26.552 89.917,20.719L96.983,9.503C108.753,16.918 117.86,28.181 122.532,41.52ZM116.497,94.983L105.281,87.917C110.011,80.409 112.744,71.521 112.744,62C112.744,60.15 112.642,58.325 112.441,56.528L125.615,55.058C125.869,57.337 126,59.653 126,62C126,74.117 122.516,85.428 116.497,94.983ZM70.942,123.615L69.472,110.441C80.74,109.183 90.849,104.069 98.459,96.459L107.832,105.832C98.149,115.515 85.281,122.014 70.942,123.615ZM20.168,105.832L29.541,96.459C37.151,104.069 47.26,109.183 58.528,110.441L57.058,123.615C42.719,122.014 29.851,115.515 20.168,105.832Z" style="fill:rgb(71,182,255);"/>
    </g>
    <g transform="matrix(3.44813,0,0,3.44813,-36.9709,-59.5465)">
        <path d="M38.24,38.006L34.795,41.451L29.299,35.939L23.77,41.451L20.325,38.006L29.322,29.049L38.24,38.006Z" style="fill:rgb(71,182,255);"/>
    </g>
</svg>
