<?xml version="1.0" encoding="UTF-8" standalone="no"?><!DOCTYPE svg PUBLIC "-//W3C//DTD SVG 1.1//EN" "http://www.w3.org/Graphics/SVG/1.1/DTD/svg11.dtd"><svg width="100%" height="100%" viewBox="0 0 800 157" version="1.1" xmlns="http://www.w3.org/2000/svg" xmlns:xlink="http://www.w3.org/1999/xlink" xml:space="preserve" xmlns:serif="http://www.serif.com/" style="fill-rule:evenodd;clip-rule:evenodd;stroke-linejoin:round;stroke-miterlimit:2;"><rect id="logo" x="0" y="0" width="800" height="157" style="fill:none;"/><clipPath id="_clip1"><rect x="0" y="0" width="800" height="157"/></clipPath><g clip-path="url(#_clip1)"><g><path d="M10.485,39.213c18.423,-31.909 55.868,-45.988 89.741,-36.183c-8.21,4.386 -13.797,13.04 -13.797,22.999c-0,14.393 11.667,26.06 26.06,26.06c13.777,0 25.058,-10.692 25.996,-24.231c20.702,24.563 24.933,60.417 7.944,89.842c-18.423,31.909 -55.868,45.988 -89.74,36.183c8.21,-4.386 13.796,-13.04 13.796,-23c0,-14.392 -11.667,-26.059 -26.06,-26.059c-13.777,-0 -25.057,10.691 -25.996,24.23c-20.702,-24.563 -24.932,-60.416 -7.944,-89.841Zm33.94,7.359c-14.392,0 -26.059,11.667 -26.059,26.06c-0,14.392 11.667,26.06 26.059,26.06c14.393,-0 26.06,-11.668 26.06,-26.06c0,-14.393 -11.667,-26.06 -26.06,-26.06Zm68.064,11.649c-14.393,0 -26.06,11.667 -26.06,26.06c-0,14.392 11.667,26.06 26.06,26.06c14.392,-0 26.059,-11.668 26.059,-26.06c0,-14.393 -11.667,-26.06 -26.059,-26.06Z" style="fill:url(#_Linear2);fill-rule:nonzero;"/><path d="M212.452,92.802c0,1.076 -0.072,1.902 -0.216,2.477c-0.143,0.574 -0.333,0.978 -0.568,1.21c-0.235,0.232 -0.581,0.44 -1.039,0.624c-0.457,0.183 -0.993,0.342 -1.607,0.477c-0.614,0.134 -1.281,0.238 -1.999,0.311c-0.719,0.074 -1.444,0.11 -2.176,0.11c-1.96,0 -3.659,-0.232 -5.096,-0.697c-1.438,-0.464 -2.627,-1.18 -3.568,-2.146c-0.941,-0.966 -1.633,-2.182 -2.078,-3.65c-0.444,-1.467 -0.666,-3.203 -0.666,-5.209l-0,-16.764l-4.195,0c-0.496,0 -0.875,-0.287 -1.137,-0.862c-0.261,-0.575 -0.392,-1.534 -0.392,-2.879c0,-0.71 0.033,-1.309 0.098,-1.798c0.066,-0.489 0.164,-0.874 0.294,-1.155c0.131,-0.282 0.294,-0.483 0.49,-0.606c0.197,-0.122 0.425,-0.183 0.687,-0.183l4.155,-0l-0,-7.3c-0,-0.245 0.072,-0.465 0.216,-0.66c0.143,-0.196 0.405,-0.361 0.784,-0.496c0.379,-0.134 0.888,-0.232 1.529,-0.293c0.64,-0.061 1.43,-0.092 2.371,-0.092c0.967,0 1.771,0.031 2.411,0.092c0.64,0.061 1.144,0.159 1.509,0.293c0.366,0.135 0.628,0.3 0.785,0.496c0.156,0.195 0.235,0.415 0.235,0.66l-0,7.3l7.605,-0c0.261,-0 0.49,0.061 0.686,0.183c0.196,0.123 0.359,0.324 0.49,0.606c0.131,0.281 0.229,0.666 0.294,1.155c0.065,0.489 0.098,1.088 0.098,1.798c0,1.345 -0.131,2.304 -0.392,2.879c-0.261,0.575 -0.64,0.862 -1.137,0.862l-7.644,0l-0,15.37c-0,1.786 0.3,3.125 0.901,4.017c0.601,0.893 1.673,1.339 3.215,1.339c0.523,0 0.993,-0.043 1.411,-0.128c0.418,-0.086 0.791,-0.184 1.118,-0.294c0.326,-0.11 0.601,-0.207 0.823,-0.293c0.222,-0.086 0.424,-0.128 0.607,-0.128c0.157,-0 0.307,0.042 0.451,0.128c0.144,0.086 0.255,0.257 0.333,0.513c0.079,0.257 0.151,0.606 0.216,1.046c0.065,0.44 0.098,1.003 0.098,1.687Z" style="fill:#1a74ce;fill-rule:nonzero;"/><path d="M273.098,63.236c-0,0.269 -0.039,0.599 -0.118,0.99c-0.078,0.391 -0.222,0.954 -0.431,1.688l-9.33,29.603c-0.131,0.416 -0.301,0.752 -0.51,1.009c-0.209,0.257 -0.529,0.458 -0.96,0.605c-0.431,0.147 -1.046,0.245 -1.843,0.293c-0.797,0.049 -1.836,0.074 -3.116,0.074c-1.281,-0 -2.326,-0.031 -3.136,-0.092c-0.811,-0.061 -1.444,-0.165 -1.902,-0.312c-0.457,-0.146 -0.79,-0.348 -0.999,-0.605c-0.209,-0.257 -0.366,-0.581 -0.471,-0.972l-5.88,-19.882l-0.079,-0.33l-0.078,0.33l-5.41,19.882c-0.104,0.416 -0.255,0.752 -0.451,1.009c-0.196,0.257 -0.529,0.458 -0.999,0.605c-0.471,0.147 -1.111,0.245 -1.921,0.293c-0.81,0.049 -1.856,0.074 -3.136,0.074c-1.307,-0 -2.359,-0.031 -3.156,-0.092c-0.797,-0.061 -1.425,-0.165 -1.882,-0.312c-0.457,-0.146 -0.79,-0.348 -1,-0.605c-0.209,-0.257 -0.365,-0.581 -0.47,-0.972l-9.252,-29.603c-0.235,-0.71 -0.385,-1.266 -0.451,-1.669c-0.065,-0.404 -0.098,-0.74 -0.098,-1.009c0,-0.245 0.072,-0.459 0.216,-0.642c0.144,-0.184 0.405,-0.33 0.784,-0.44c0.379,-0.11 0.889,-0.19 1.529,-0.239c0.64,-0.049 1.444,-0.073 2.411,-0.073c1.045,-0 1.895,0.024 2.548,0.073c0.653,0.049 1.163,0.135 1.529,0.257c0.366,0.122 0.621,0.287 0.764,0.495c0.144,0.208 0.255,0.459 0.334,0.752l6.938,24.028l0.079,0.44l0.078,-0.44l6.508,-24.028c0.078,-0.293 0.202,-0.544 0.372,-0.752c0.17,-0.208 0.425,-0.373 0.765,-0.495c0.339,-0.122 0.816,-0.208 1.431,-0.257c0.614,-0.049 1.404,-0.073 2.371,-0.073c0.967,-0 1.751,0.03 2.352,0.091c0.602,0.062 1.078,0.147 1.431,0.257c0.353,0.11 0.601,0.257 0.745,0.44c0.144,0.184 0.255,0.398 0.333,0.642l6.978,24.211l0.118,0.404l0.078,-0.44l6.665,-24.028c0.052,-0.293 0.157,-0.544 0.313,-0.752c0.157,-0.208 0.419,-0.373 0.784,-0.495c0.366,-0.122 0.863,-0.208 1.49,-0.257c0.627,-0.049 1.424,-0.073 2.391,-0.073c0.967,-0 1.758,0.024 2.372,0.073c0.614,0.049 1.098,0.129 1.451,0.239c0.352,0.11 0.594,0.256 0.725,0.44c0.131,0.183 0.196,0.397 0.196,0.642Z" style="fill:#1a74ce;fill-rule:nonzero;"/><path d="M314.103,79.34c0,2.788 -0.392,5.331 -1.176,7.63c-0.784,2.299 -1.973,4.279 -3.567,5.942c-1.594,1.663 -3.594,2.947 -5.998,3.852c-2.404,0.905 -5.214,1.357 -8.428,1.357c-3.11,0 -5.815,-0.403 -8.115,-1.21c-2.3,-0.807 -4.208,-1.981 -5.724,-3.522c-1.516,-1.54 -2.639,-3.436 -3.371,-5.686c-0.732,-2.249 -1.098,-4.817 -1.098,-7.703c0,-2.788 0.399,-5.337 1.196,-7.648c0.797,-2.312 1.993,-4.292 3.587,-5.943c1.594,-1.651 3.587,-2.929 5.978,-3.834c2.391,-0.904 5.194,-1.357 8.409,-1.357c3.136,0 5.854,0.398 8.154,1.192c2.3,0.795 4.201,1.963 5.704,3.504c1.503,1.54 2.62,3.436 3.352,5.685c0.732,2.25 1.097,4.83 1.097,7.741Zm-10.153,0.366c0,-1.614 -0.137,-3.099 -0.412,-4.457c-0.274,-1.357 -0.738,-2.537 -1.391,-3.539c-0.654,-1.003 -1.523,-1.786 -2.607,-2.348c-1.085,-0.563 -2.45,-0.844 -4.097,-0.844c-1.463,0 -2.744,0.251 -3.842,0.752c-1.097,0.501 -1.999,1.235 -2.705,2.201c-0.705,0.966 -1.234,2.128 -1.587,3.485c-0.353,1.357 -0.53,2.904 -0.53,4.64c0,1.614 0.144,3.1 0.432,4.457c0.287,1.358 0.751,2.538 1.391,3.54c0.641,1.003 1.51,1.78 2.607,2.33c1.098,0.55 2.457,0.825 4.077,0.825c1.49,0 2.784,-0.251 3.881,-0.752c1.098,-0.501 2,-1.229 2.705,-2.183c0.706,-0.953 1.229,-2.109 1.568,-3.466c0.34,-1.357 0.51,-2.904 0.51,-4.641Z" style="fill:#1a74ce;fill-rule:nonzero;"/><path d="M364.674,86.786c0,1.859 -0.372,3.497 -1.117,4.916c-0.745,1.418 -1.797,2.604 -3.156,3.558c-1.359,0.954 -2.966,1.669 -4.822,2.146c-1.855,0.477 -3.868,0.715 -6.037,0.715c-1.306,0 -2.554,-0.091 -3.744,-0.275c-1.189,-0.183 -2.254,-0.415 -3.195,-0.697c-0.94,-0.281 -1.724,-0.568 -2.352,-0.862c-0.627,-0.293 -1.084,-0.568 -1.372,-0.825c-0.287,-0.257 -0.509,-0.66 -0.666,-1.211c-0.157,-0.55 -0.235,-1.363 -0.235,-2.439c-0,-0.709 0.026,-1.278 0.078,-1.706c0.052,-0.428 0.131,-0.77 0.235,-1.027c0.105,-0.257 0.235,-0.428 0.392,-0.514c0.157,-0.085 0.353,-0.128 0.588,-0.128c0.288,0 0.712,0.153 1.274,0.459c0.562,0.305 1.261,0.642 2.098,1.008c0.836,0.367 1.81,0.71 2.92,1.028c1.111,0.317 2.372,0.476 3.783,0.476c0.889,0 1.679,-0.085 2.372,-0.256c0.693,-0.172 1.294,-0.416 1.803,-0.734c0.51,-0.318 0.895,-0.721 1.157,-1.211c0.261,-0.489 0.392,-1.051 0.392,-1.687c-0,-0.734 -0.242,-1.363 -0.725,-1.889c-0.484,-0.526 -1.124,-0.985 -1.921,-1.376c-0.797,-0.391 -1.699,-0.758 -2.705,-1.1c-1.007,-0.343 -2.039,-0.722 -3.097,-1.137c-1.059,-0.416 -2.091,-0.893 -3.097,-1.431c-1.006,-0.538 -1.908,-1.198 -2.705,-1.981c-0.797,-0.783 -1.438,-1.724 -1.921,-2.825c-0.484,-1.1 -0.725,-2.421 -0.725,-3.961c-0,-1.566 0.326,-3.002 0.98,-4.311c0.653,-1.308 1.594,-2.427 2.822,-3.356c1.229,-0.929 2.725,-1.651 4.489,-2.165c1.764,-0.513 3.744,-0.77 5.939,-0.77c1.098,0 2.163,0.074 3.195,0.22c1.032,0.147 1.967,0.33 2.803,0.55c0.836,0.221 1.542,0.459 2.117,0.716c0.575,0.257 0.986,0.477 1.235,0.66c0.248,0.184 0.424,0.367 0.529,0.55c0.105,0.184 0.183,0.404 0.235,0.661c0.052,0.256 0.098,0.574 0.137,0.953c0.04,0.379 0.059,0.85 0.059,1.413c0,0.66 -0.019,1.198 -0.059,1.614c-0.039,0.416 -0.104,0.746 -0.196,0.99c-0.091,0.245 -0.215,0.41 -0.372,0.495c-0.157,0.086 -0.34,0.129 -0.549,0.129c-0.235,-0 -0.601,-0.129 -1.098,-0.385c-0.496,-0.257 -1.117,-0.532 -1.862,-0.826c-0.744,-0.293 -1.607,-0.568 -2.587,-0.825c-0.98,-0.257 -2.097,-0.385 -3.352,-0.385c-0.888,-0 -1.659,0.085 -2.313,0.257c-0.653,0.171 -1.189,0.415 -1.607,0.733c-0.418,0.318 -0.732,0.691 -0.941,1.119c-0.209,0.428 -0.313,0.887 -0.313,1.376c-0,0.758 0.248,1.394 0.744,1.907c0.497,0.514 1.15,0.966 1.961,1.357c0.81,0.392 1.731,0.759 2.763,1.101c1.033,0.342 2.078,0.715 3.136,1.119c1.059,0.403 2.104,0.874 3.137,1.412c1.032,0.538 1.953,1.198 2.763,1.981c0.811,0.783 1.464,1.718 1.96,2.806c0.497,1.089 0.745,2.379 0.745,3.87Z" style="fill:#1a74ce;fill-rule:nonzero;"/><path d="M391.881,92.802c-0,1.076 -0.072,1.902 -0.216,2.477c-0.144,0.574 -0.333,0.978 -0.568,1.21c-0.236,0.232 -0.582,0.44 -1.039,0.624c-0.458,0.183 -0.993,0.342 -1.608,0.477c-0.614,0.134 -1.28,0.238 -1.999,0.311c-0.719,0.074 -1.444,0.11 -2.176,0.11c-1.96,0 -3.658,-0.232 -5.096,-0.697c-1.437,-0.464 -2.626,-1.18 -3.567,-2.146c-0.941,-0.966 -1.634,-2.182 -2.078,-3.65c-0.444,-1.467 -0.666,-3.203 -0.666,-5.209l-0,-16.764l-4.195,0c-0.497,0 -0.876,-0.287 -1.137,-0.862c-0.261,-0.575 -0.392,-1.534 -0.392,-2.879c0,-0.71 0.033,-1.309 0.098,-1.798c0.065,-0.489 0.163,-0.874 0.294,-1.155c0.131,-0.282 0.294,-0.483 0.49,-0.606c0.196,-0.122 0.425,-0.183 0.686,-0.183l4.156,-0l-0,-7.3c-0,-0.245 0.071,-0.465 0.215,-0.66c0.144,-0.196 0.405,-0.361 0.784,-0.496c0.379,-0.134 0.889,-0.232 1.529,-0.293c0.64,-0.061 1.431,-0.092 2.372,-0.092c0.967,0 1.771,0.031 2.411,0.092c0.64,0.061 1.143,0.159 1.509,0.293c0.366,0.135 0.627,0.3 0.784,0.496c0.157,0.195 0.235,0.415 0.235,0.66l0,7.3l7.606,-0c0.261,-0 0.49,0.061 0.686,0.183c0.196,0.123 0.359,0.324 0.49,0.606c0.13,0.281 0.228,0.666 0.294,1.155c0.065,0.489 0.098,1.088 0.098,1.798c-0,1.345 -0.131,2.304 -0.392,2.879c-0.262,0.575 -0.641,0.862 -1.137,0.862l-7.645,0l0,15.37c0,1.786 0.301,3.125 0.902,4.017c0.601,0.893 1.673,1.339 3.215,1.339c0.522,0 0.993,-0.043 1.411,-0.128c0.418,-0.086 0.79,-0.184 1.117,-0.294c0.327,-0.11 0.601,-0.207 0.823,-0.293c0.223,-0.086 0.425,-0.128 0.608,-0.128c0.157,-0 0.307,0.042 0.451,0.128c0.144,0.086 0.255,0.257 0.333,0.513c0.078,0.257 0.15,0.606 0.216,1.046c0.065,0.44 0.098,1.003 0.098,1.687Z" style="fill:#1a74ce;fill-rule:nonzero;"/><path d="M430.338,78.716c0,1.125 -0.268,1.956 -0.804,2.494c-0.535,0.539 -1.274,0.808 -2.215,0.808l-21.286,-0c-0,1.393 0.176,2.659 0.529,3.796c0.353,1.137 0.915,2.103 1.686,2.898c0.771,0.795 1.764,1.4 2.979,1.816c1.215,0.416 2.672,0.624 4.371,0.624c1.725,-0 3.241,-0.117 4.547,-0.349c1.307,-0.232 2.438,-0.489 3.391,-0.77c0.954,-0.281 1.745,-0.538 2.372,-0.771c0.627,-0.232 1.137,-0.348 1.529,-0.348c0.235,-0 0.431,0.043 0.588,0.128c0.157,0.086 0.288,0.239 0.392,0.459c0.105,0.22 0.177,0.532 0.216,0.935c0.039,0.404 0.059,0.911 0.059,1.523c-0,0.538 -0.013,0.996 -0.04,1.375c-0.026,0.379 -0.065,0.703 -0.117,0.972c-0.053,0.269 -0.131,0.496 -0.235,0.679c-0.105,0.183 -0.242,0.361 -0.412,0.532c-0.17,0.171 -0.634,0.403 -1.392,0.697c-0.758,0.293 -1.725,0.581 -2.901,0.862c-1.176,0.281 -2.522,0.526 -4.038,0.734c-1.515,0.208 -3.136,0.311 -4.861,0.311c-3.11,0 -5.834,-0.366 -8.173,-1.1c-2.339,-0.734 -4.293,-1.846 -5.861,-3.338c-1.568,-1.492 -2.738,-3.375 -3.509,-5.649c-0.771,-2.275 -1.156,-4.94 -1.156,-7.997c-0,-2.911 0.405,-5.533 1.215,-7.869c0.81,-2.335 1.986,-4.316 3.528,-5.943c1.542,-1.626 3.418,-2.867 5.626,-3.723c2.208,-0.856 4.698,-1.284 7.468,-1.284c2.927,0 5.429,0.404 7.507,1.211c2.078,0.807 3.783,1.926 5.116,3.356c1.333,1.431 2.313,3.124 2.94,5.081c0.627,1.956 0.941,4.084 0.941,6.383l0,1.467Zm-9.565,-2.641c0.078,-2.592 -0.477,-4.628 -1.666,-6.108c-1.19,-1.479 -3.025,-2.219 -5.508,-2.219c-1.255,-0 -2.346,0.22 -3.274,0.66c-0.927,0.44 -1.698,1.033 -2.313,1.779c-0.614,0.746 -1.084,1.626 -1.411,2.641c-0.327,1.015 -0.516,2.097 -0.568,3.247l14.74,-0Z" style="fill:#1a74ce;fill-rule:nonzero;"/><path d="M473.657,79.193c-0,2.91 -0.334,5.533 -1,7.868c-0.667,2.336 -1.64,4.323 -2.921,5.961c-1.28,1.639 -2.875,2.898 -4.782,3.779c-1.908,0.88 -4.09,1.32 -6.547,1.32c-1.019,0 -1.954,-0.091 -2.803,-0.275c-0.849,-0.183 -1.673,-0.464 -2.47,-0.843c-0.797,-0.379 -1.588,-0.85 -2.372,-1.413c-0.784,-0.562 -1.594,-1.222 -2.43,-1.981l-0,15.407c-0,0.245 -0.079,0.465 -0.235,0.661c-0.157,0.195 -0.425,0.36 -0.804,0.495c-0.379,0.134 -0.882,0.238 -1.509,0.312c-0.627,0.073 -1.425,0.11 -2.392,0.11c-0.967,-0 -1.764,-0.037 -2.391,-0.11c-0.627,-0.074 -1.13,-0.178 -1.509,-0.312c-0.379,-0.135 -0.647,-0.3 -0.804,-0.495c-0.157,-0.196 -0.235,-0.416 -0.235,-0.661l-0,-45.707c-0,-0.244 0.065,-0.458 0.196,-0.642c0.131,-0.183 0.359,-0.336 0.686,-0.458c0.327,-0.123 0.758,-0.214 1.294,-0.276c0.535,-0.061 1.208,-0.091 2.019,-0.091c0.784,-0 1.444,0.03 1.979,0.091c0.536,0.062 0.967,0.153 1.294,0.276c0.327,0.122 0.555,0.275 0.686,0.458c0.131,0.184 0.196,0.398 0.196,0.642l0,3.852c1.019,-0.978 2.019,-1.84 2.999,-2.586c0.98,-0.746 1.98,-1.37 2.999,-1.871c1.019,-0.502 2.071,-0.874 3.156,-1.119c1.084,-0.245 2.241,-0.367 3.469,-0.367c2.561,0 4.744,0.471 6.547,1.412c1.803,0.942 3.273,2.232 4.41,3.871c1.137,1.638 1.967,3.546 2.489,5.722c0.523,2.177 0.785,4.5 0.785,6.97Zm-10.271,0.66c-0,-1.394 -0.112,-2.733 -0.334,-4.017c-0.222,-1.284 -0.601,-2.427 -1.137,-3.429c-0.535,-1.003 -1.241,-1.804 -2.116,-2.403c-0.876,-0.599 -1.967,-0.899 -3.274,-0.899c-0.653,0 -1.3,0.092 -1.94,0.275c-0.641,0.184 -1.294,0.483 -1.96,0.899c-0.667,0.416 -1.353,0.954 -2.059,1.614c-0.705,0.66 -1.45,1.48 -2.234,2.458l-0,10.785c1.385,1.638 2.705,2.904 3.959,3.796c1.255,0.893 2.562,1.339 3.921,1.339c1.28,0 2.371,-0.305 3.273,-0.917c0.902,-0.611 1.64,-1.412 2.215,-2.403c0.575,-0.99 1,-2.109 1.274,-3.356c0.274,-1.247 0.412,-2.495 0.412,-3.742Z" style="fill:#1a74ce;fill-rule:nonzero;"/><path d="M505.763,86.786c0,1.859 -0.372,3.497 -1.117,4.916c-0.745,1.418 -1.797,2.604 -3.156,3.558c-1.359,0.954 -2.966,1.669 -4.822,2.146c-1.855,0.477 -3.868,0.715 -6.037,0.715c-1.307,0 -2.555,-0.091 -3.744,-0.275c-1.189,-0.183 -2.254,-0.415 -3.195,-0.697c-0.941,-0.281 -1.725,-0.568 -2.352,-0.862c-0.627,-0.293 -1.084,-0.568 -1.372,-0.825c-0.287,-0.257 -0.51,-0.66 -0.666,-1.211c-0.157,-0.55 -0.236,-1.363 -0.236,-2.439c0,-0.709 0.027,-1.278 0.079,-1.706c0.052,-0.428 0.131,-0.77 0.235,-1.027c0.105,-0.257 0.235,-0.428 0.392,-0.514c0.157,-0.085 0.353,-0.128 0.588,-0.128c0.288,0 0.712,0.153 1.274,0.459c0.562,0.305 1.261,0.642 2.098,1.008c0.836,0.367 1.809,0.71 2.92,1.028c1.111,0.317 2.372,0.476 3.783,0.476c0.889,0 1.679,-0.085 2.372,-0.256c0.692,-0.172 1.294,-0.416 1.803,-0.734c0.51,-0.318 0.895,-0.721 1.157,-1.211c0.261,-0.489 0.392,-1.051 0.392,-1.687c-0,-0.734 -0.242,-1.363 -0.726,-1.889c-0.483,-0.526 -1.123,-0.985 -1.921,-1.376c-0.797,-0.391 -1.698,-0.758 -2.704,-1.1c-1.007,-0.343 -2.039,-0.722 -3.097,-1.137c-1.059,-0.416 -2.091,-0.893 -3.097,-1.431c-1.007,-0.538 -1.908,-1.198 -2.705,-1.981c-0.798,-0.783 -1.438,-1.724 -1.921,-2.825c-0.484,-1.1 -0.726,-2.421 -0.726,-3.961c0,-1.566 0.327,-3.002 0.981,-4.311c0.653,-1.308 1.594,-2.427 2.822,-3.356c1.228,-0.929 2.725,-1.651 4.489,-2.165c1.764,-0.513 3.744,-0.77 5.939,-0.77c1.098,0 2.163,0.074 3.195,0.22c1.032,0.147 1.966,0.33 2.803,0.55c0.836,0.221 1.542,0.459 2.117,0.716c0.575,0.257 0.986,0.477 1.235,0.66c0.248,0.184 0.424,0.367 0.529,0.55c0.104,0.184 0.183,0.404 0.235,0.661c0.052,0.256 0.098,0.574 0.137,0.953c0.039,0.379 0.059,0.85 0.059,1.413c0,0.66 -0.02,1.198 -0.059,1.614c-0.039,0.416 -0.104,0.746 -0.196,0.99c-0.091,0.245 -0.215,0.41 -0.372,0.495c-0.157,0.086 -0.34,0.129 -0.549,0.129c-0.235,-0 -0.601,-0.129 -1.098,-0.385c-0.496,-0.257 -1.117,-0.532 -1.862,-0.826c-0.745,-0.293 -1.607,-0.568 -2.587,-0.825c-0.98,-0.257 -2.097,-0.385 -3.352,-0.385c-0.889,-0 -1.659,0.085 -2.313,0.257c-0.653,0.171 -1.189,0.415 -1.607,0.733c-0.418,0.318 -0.732,0.691 -0.941,1.119c-0.209,0.428 -0.314,0.887 -0.314,1.376c0,0.758 0.249,1.394 0.745,1.907c0.497,0.514 1.15,0.966 1.96,1.357c0.811,0.392 1.732,0.759 2.764,1.101c1.032,0.342 2.078,0.715 3.136,1.119c1.059,0.403 2.104,0.874 3.136,1.412c1.033,0.538 1.954,1.198 2.764,1.981c0.81,0.783 1.464,1.718 1.96,2.806c0.497,1.089 0.745,2.379 0.745,3.87Z" style="fill:#1a74ce;fill-rule:nonzero;"/><path d="M552.414,50.837c-0,0.709 -0.026,1.278 -0.079,1.706c-0.052,0.428 -0.13,0.758 -0.235,0.99c-0.104,0.232 -0.222,0.391 -0.353,0.477c-0.13,0.085 -0.274,0.128 -0.431,0.128c-0.183,0 -0.385,-0.043 -0.607,-0.128c-0.223,-0.086 -0.497,-0.177 -0.824,-0.275c-0.326,-0.098 -0.712,-0.19 -1.156,-0.275c-0.444,-0.086 -0.967,-0.129 -1.568,-0.129c-0.706,0 -1.314,0.104 -1.823,0.312c-0.51,0.208 -0.934,0.538 -1.274,0.991c-0.34,0.452 -0.588,1.039 -0.745,1.76c-0.157,0.722 -0.235,1.608 -0.235,2.66l-0,3.008l6.39,-0c0.235,-0 0.45,0.061 0.646,0.183c0.197,0.123 0.36,0.324 0.491,0.606c0.13,0.281 0.228,0.666 0.294,1.155c0.065,0.489 0.098,1.088 0.098,1.798c-0,1.345 -0.131,2.304 -0.392,2.879c-0.262,0.575 -0.641,0.862 -1.137,0.862l-6.39,0l-0,26.486c-0,0.244 -0.079,0.458 -0.236,0.641c-0.156,0.184 -0.418,0.337 -0.784,0.459c-0.365,0.122 -0.875,0.214 -1.528,0.275c-0.654,0.061 -1.451,0.092 -2.392,0.092c-0.941,-0 -1.731,-0.031 -2.372,-0.092c-0.64,-0.061 -1.149,-0.153 -1.528,-0.275c-0.379,-0.122 -0.641,-0.275 -0.784,-0.459c-0.144,-0.183 -0.216,-0.397 -0.216,-0.641l-0,-26.486l-4.391,0c-0.496,0 -0.869,-0.287 -1.117,-0.862c-0.248,-0.575 -0.372,-1.534 -0.372,-2.879c-0,-0.71 0.032,-1.309 0.098,-1.798c0.065,-0.489 0.156,-0.874 0.274,-1.155c0.118,-0.282 0.274,-0.483 0.47,-0.606c0.196,-0.122 0.425,-0.183 0.686,-0.183l4.352,-0l-0,-2.751c-0,-2.226 0.235,-4.176 0.706,-5.851c0.47,-1.676 1.208,-3.07 2.215,-4.182c1.006,-1.113 2.286,-1.951 3.841,-2.513c1.555,-0.563 3.391,-0.844 5.508,-0.844c1.019,0 1.986,0.08 2.901,0.239c0.915,0.159 1.634,0.33 2.156,0.513c0.523,0.184 0.876,0.355 1.059,0.514c0.183,0.159 0.333,0.391 0.451,0.697c0.117,0.306 0.202,0.697 0.254,1.174c0.053,0.477 0.079,1.07 0.079,1.779Z" style="fill:#1a74ce;fill-rule:nonzero;"/><path d="M590.871,79.34c0,2.788 -0.392,5.331 -1.176,7.63c-0.784,2.299 -1.973,4.279 -3.567,5.942c-1.594,1.663 -3.594,2.947 -5.998,3.852c-2.405,0.905 -5.214,1.357 -8.429,1.357c-3.11,0 -5.815,-0.403 -8.115,-1.21c-2.299,-0.807 -4.207,-1.981 -5.723,-3.522c-1.516,-1.54 -2.64,-3.436 -3.371,-5.686c-0.732,-2.249 -1.098,-4.817 -1.098,-7.703c-0,-2.788 0.398,-5.337 1.196,-7.648c0.797,-2.312 1.992,-4.292 3.587,-5.943c1.594,-1.651 3.587,-2.929 5.978,-3.834c2.391,-0.904 5.194,-1.357 8.409,-1.357c3.136,0 5.854,0.398 8.154,1.192c2.3,0.795 4.201,1.963 5.704,3.504c1.503,1.54 2.62,3.436 3.352,5.685c0.731,2.25 1.097,4.83 1.097,7.741Zm-10.153,0.366c-0,-1.614 -0.137,-3.099 -0.412,-4.457c-0.274,-1.357 -0.738,-2.537 -1.391,-3.539c-0.654,-1.003 -1.523,-1.786 -2.607,-2.348c-1.085,-0.563 -2.451,-0.844 -4.097,-0.844c-1.464,0 -2.744,0.251 -3.842,0.752c-1.098,0.501 -1.999,1.235 -2.705,2.201c-0.705,0.966 -1.235,2.128 -1.588,3.485c-0.352,1.357 -0.529,2.904 -0.529,4.64c0,1.614 0.144,3.1 0.431,4.457c0.288,1.358 0.752,2.538 1.392,3.54c0.64,1.003 1.509,1.78 2.607,2.33c1.098,0.55 2.457,0.825 4.077,0.825c1.49,0 2.784,-0.251 3.881,-0.752c1.098,-0.501 1.999,-1.229 2.705,-2.183c0.706,-0.953 1.228,-2.109 1.568,-3.466c0.34,-1.357 0.51,-2.904 0.51,-4.641Z" style="fill:#1a74ce;fill-rule:nonzero;"/><path d="M621.135,66.354c0,0.88 -0.026,1.602 -0.078,2.164c-0.052,0.563 -0.131,1.003 -0.235,1.321c-0.105,0.318 -0.242,0.538 -0.412,0.66c-0.17,0.122 -0.385,0.183 -0.647,0.183c-0.209,0 -0.444,-0.042 -0.705,-0.128c-0.262,-0.086 -0.556,-0.177 -0.882,-0.275c-0.327,-0.098 -0.686,-0.19 -1.078,-0.275c-0.393,-0.086 -0.824,-0.129 -1.294,-0.129c-0.549,0 -1.098,0.104 -1.647,0.312c-0.548,0.208 -1.117,0.532 -1.705,0.972c-0.588,0.44 -1.202,1.027 -1.842,1.761c-0.641,0.734 -1.327,1.639 -2.059,2.715l0,20.396c0,0.244 -0.078,0.458 -0.235,0.641c-0.157,0.184 -0.424,0.337 -0.803,0.459c-0.379,0.122 -0.882,0.214 -1.51,0.275c-0.627,0.061 -1.424,0.092 -2.391,0.092c-0.967,-0 -1.764,-0.031 -2.391,-0.092c-0.628,-0.061 -1.131,-0.153 -1.51,-0.275c-0.379,-0.122 -0.647,-0.275 -0.803,-0.459c-0.157,-0.183 -0.236,-0.397 -0.236,-0.641l0,-32.722c0,-0.244 0.066,-0.458 0.196,-0.642c0.131,-0.183 0.366,-0.336 0.706,-0.458c0.34,-0.123 0.778,-0.214 1.313,-0.276c0.536,-0.061 1.209,-0.091 2.019,-0.091c0.837,-0 1.529,0.03 2.078,0.091c0.549,0.062 0.974,0.153 1.274,0.276c0.301,0.122 0.516,0.275 0.647,0.458c0.131,0.184 0.196,0.398 0.196,0.642l-0,4.072c0.915,-1.223 1.777,-2.232 2.587,-3.026c0.81,-0.795 1.581,-1.425 2.313,-1.89c0.732,-0.464 1.464,-0.788 2.196,-0.972c0.731,-0.183 1.463,-0.275 2.195,-0.275c0.34,0 0.706,0.018 1.098,0.055c0.392,0.037 0.797,0.098 1.215,0.184c0.418,0.085 0.784,0.183 1.097,0.293c0.314,0.11 0.543,0.226 0.687,0.349c0.143,0.122 0.248,0.256 0.313,0.403c0.065,0.147 0.124,0.349 0.177,0.605c0.052,0.257 0.091,0.642 0.117,1.156c0.026,0.513 0.039,1.21 0.039,2.091Z" style="fill:#1a74ce;fill-rule:nonzero;"/><path d="M681.193,63.236c0,0.269 -0.039,0.599 -0.117,0.99c-0.079,0.391 -0.223,0.954 -0.432,1.688l-9.33,29.603c-0.13,0.416 -0.3,0.752 -0.509,1.009c-0.21,0.257 -0.53,0.458 -0.961,0.605c-0.431,0.147 -1.045,0.245 -1.842,0.293c-0.797,0.049 -1.836,0.074 -3.117,0.074c-1.281,-0 -2.326,-0.031 -3.136,-0.092c-0.81,-0.061 -1.444,-0.165 -1.901,-0.312c-0.458,-0.146 -0.791,-0.348 -1,-0.605c-0.209,-0.257 -0.366,-0.581 -0.471,-0.972l-5.88,-19.882l-0.078,-0.33l-0.079,0.33l-5.41,19.882c-0.104,0.416 -0.254,0.752 -0.45,1.009c-0.196,0.257 -0.53,0.458 -1,0.605c-0.47,0.147 -1.111,0.245 -1.921,0.293c-0.81,0.049 -1.856,0.074 -3.136,0.074c-1.307,-0 -2.359,-0.031 -3.156,-0.092c-0.797,-0.061 -1.424,-0.165 -1.882,-0.312c-0.457,-0.146 -0.79,-0.348 -0.999,-0.605c-0.209,-0.257 -0.366,-0.581 -0.471,-0.972l-9.251,-29.603c-0.236,-0.71 -0.386,-1.266 -0.451,-1.669c-0.066,-0.404 -0.098,-0.74 -0.098,-1.009c-0,-0.245 0.072,-0.459 0.215,-0.642c0.144,-0.184 0.405,-0.33 0.784,-0.44c0.379,-0.11 0.889,-0.19 1.529,-0.239c0.641,-0.049 1.444,-0.073 2.411,-0.073c1.046,-0 1.895,0.024 2.548,0.073c0.654,0.049 1.163,0.135 1.529,0.257c0.366,0.122 0.621,0.287 0.765,0.495c0.143,0.208 0.254,0.459 0.333,0.752l6.939,24.028l0.078,0.44l0.078,-0.44l6.508,-24.028c0.078,-0.293 0.203,-0.544 0.372,-0.752c0.17,-0.208 0.425,-0.373 0.765,-0.495c0.34,-0.122 0.817,-0.208 1.431,-0.257c0.614,-0.049 1.405,-0.073 2.372,-0.073c0.967,-0 1.751,0.03 2.352,0.091c0.601,0.062 1.078,0.147 1.431,0.257c0.352,0.11 0.601,0.257 0.744,0.44c0.144,0.184 0.255,0.398 0.334,0.642l6.978,24.211l0.117,0.404l0.079,-0.44l6.664,-24.028c0.052,-0.293 0.157,-0.544 0.314,-0.752c0.156,-0.208 0.418,-0.373 0.784,-0.495c0.366,-0.122 0.862,-0.208 1.489,-0.257c0.628,-0.049 1.425,-0.073 2.392,-0.073c0.967,-0 1.757,0.024 2.371,0.073c0.615,0.049 1.098,0.129 1.451,0.239c0.353,0.11 0.594,0.256 0.725,0.44c0.131,0.183 0.196,0.397 0.196,0.642Z" style="fill:#1a74ce;fill-rule:nonzero;"/><path d="M716.436,96.141c-0,0.342 -0.131,0.611 -0.392,0.807c-0.261,0.195 -0.673,0.336 -1.235,0.421c-0.562,0.086 -1.392,0.129 -2.489,0.129c-1.176,-0 -2.032,-0.043 -2.568,-0.129c-0.536,-0.085 -0.915,-0.226 -1.137,-0.421c-0.222,-0.196 -0.333,-0.465 -0.333,-0.807l-0,-2.605c-1.438,1.443 -3.077,2.568 -4.92,3.375c-1.842,0.807 -3.888,1.21 -6.135,1.21c-1.856,0 -3.561,-0.226 -5.116,-0.678c-1.555,-0.453 -2.901,-1.125 -4.038,-2.018c-1.137,-0.892 -2.019,-1.999 -2.646,-3.32c-0.627,-1.32 -0.941,-2.861 -0.941,-4.622c0,-1.907 0.399,-3.564 1.196,-4.97c0.797,-1.406 1.986,-2.568 3.567,-3.485c1.581,-0.917 3.548,-1.596 5.9,-2.036c2.352,-0.44 5.083,-0.66 8.193,-0.66l3.411,-0l0,-1.981c0,-1.027 -0.111,-1.926 -0.333,-2.696c-0.222,-0.771 -0.588,-1.413 -1.098,-1.926c-0.509,-0.514 -1.189,-0.893 -2.038,-1.138c-0.85,-0.244 -1.902,-0.366 -3.156,-0.366c-1.647,-0 -3.117,0.171 -4.41,0.513c-1.294,0.343 -2.437,0.722 -3.431,1.137c-0.993,0.416 -1.823,0.795 -2.489,1.138c-0.666,0.342 -1.209,0.513 -1.627,0.513c-0.287,0 -0.542,-0.085 -0.764,-0.257c-0.222,-0.171 -0.405,-0.415 -0.549,-0.733c-0.144,-0.318 -0.255,-0.71 -0.333,-1.174c-0.079,-0.465 -0.118,-0.978 -0.118,-1.541c0,-0.758 0.065,-1.357 0.196,-1.797c0.131,-0.441 0.379,-0.838 0.745,-1.193c0.366,-0.354 1.006,-0.745 1.921,-1.173c0.915,-0.428 1.986,-0.826 3.214,-1.193c1.229,-0.366 2.568,-0.666 4.019,-0.898c1.45,-0.233 2.946,-0.349 4.488,-0.349c2.744,0 5.09,0.251 7.037,0.752c1.947,0.501 3.548,1.272 4.802,2.311c1.255,1.04 2.17,2.378 2.745,4.017c0.574,1.639 0.862,3.583 0.862,5.833l-0,22.01Zm-9.683,-14.013l-3.763,-0c-1.595,-0 -2.954,0.11 -4.077,0.33c-1.124,0.22 -2.039,0.55 -2.745,0.99c-0.705,0.44 -1.221,0.972 -1.548,1.596c-0.327,0.624 -0.49,1.339 -0.49,2.146c-0,1.369 0.464,2.445 1.392,3.228c0.927,0.783 2.215,1.174 3.861,1.174c1.385,-0 2.659,-0.33 3.822,-0.991c1.163,-0.66 2.346,-1.626 3.548,-2.898l0,-5.575Z" style="fill:#1a74ce;fill-rule:nonzero;"/><path d="M748.739,66.354c-0,0.88 -0.027,1.602 -0.079,2.164c-0.052,0.563 -0.13,1.003 -0.235,1.321c-0.105,0.318 -0.242,0.538 -0.412,0.66c-0.169,0.122 -0.385,0.183 -0.646,0.183c-0.21,0 -0.445,-0.042 -0.706,-0.128c-0.261,-0.086 -0.555,-0.177 -0.882,-0.275c-0.327,-0.098 -0.686,-0.19 -1.078,-0.275c-0.392,-0.086 -0.823,-0.129 -1.294,-0.129c-0.549,0 -1.098,0.104 -1.646,0.312c-0.549,0.208 -1.118,0.532 -1.706,0.972c-0.588,0.44 -1.202,1.027 -1.842,1.761c-0.64,0.734 -1.327,1.639 -2.058,2.715l-0,20.396c-0,0.244 -0.079,0.458 -0.236,0.641c-0.156,0.184 -0.424,0.337 -0.803,0.459c-0.379,0.122 -0.882,0.214 -1.509,0.275c-0.628,0.061 -1.425,0.092 -2.392,0.092c-0.967,-0 -1.764,-0.031 -2.391,-0.092c-0.627,-0.061 -1.13,-0.153 -1.509,-0.275c-0.379,-0.122 -0.647,-0.275 -0.804,-0.459c-0.157,-0.183 -0.235,-0.397 -0.235,-0.641l-0,-32.722c-0,-0.244 0.065,-0.458 0.196,-0.642c0.13,-0.183 0.366,-0.336 0.705,-0.458c0.34,-0.123 0.778,-0.214 1.314,-0.276c0.535,-0.061 1.208,-0.091 2.019,-0.091c0.836,-0 1.528,0.03 2.077,0.091c0.549,0.062 0.974,0.153 1.274,0.276c0.301,0.122 0.517,0.275 0.647,0.458c0.131,0.184 0.196,0.398 0.196,0.642l0,4.072c0.915,-1.223 1.777,-2.232 2.588,-3.026c0.81,-0.795 1.581,-1.425 2.312,-1.89c0.732,-0.464 1.464,-0.788 2.196,-0.972c0.732,-0.183 1.463,-0.275 2.195,-0.275c0.34,0 0.706,0.018 1.098,0.055c0.392,0.037 0.797,0.098 1.215,0.184c0.418,0.085 0.784,0.183 1.098,0.293c0.313,0.11 0.542,0.226 0.686,0.349c0.144,0.122 0.248,0.256 0.313,0.403c0.066,0.147 0.125,0.349 0.177,0.605c0.052,0.257 0.091,0.642 0.117,1.156c0.027,0.513 0.04,1.21 0.04,2.091Z" style="fill:#1a74ce;fill-rule:nonzero;"/><path d="M787,96.031c0,0.269 -0.065,0.495 -0.196,0.678c-0.131,0.184 -0.353,0.336 -0.666,0.459c-0.314,0.122 -0.739,0.208 -1.275,0.256c-0.535,0.049 -1.195,0.074 -1.979,0.074c-0.837,-0 -1.516,-0.025 -2.039,-0.074c-0.522,-0.048 -0.947,-0.134 -1.274,-0.256c-0.327,-0.123 -0.562,-0.275 -0.705,-0.459c-0.144,-0.183 -0.216,-0.409 -0.216,-0.678l-0,-3.632c-1.803,1.81 -3.692,3.216 -5.665,4.218c-1.973,1.003 -4.162,1.504 -6.566,1.504c-2.666,0 -4.92,-0.483 -6.763,-1.449c-1.842,-0.966 -3.345,-2.268 -4.508,-3.906c-1.163,-1.639 -2.006,-3.552 -2.528,-5.741c-0.523,-2.189 -0.784,-4.494 -0.784,-6.915c-0,-2.91 0.333,-5.527 0.999,-7.85c0.667,-2.323 1.64,-4.304 2.921,-5.943c1.28,-1.638 2.875,-2.898 4.782,-3.778c1.908,-0.881 4.104,-1.321 6.586,-1.321c1.961,0 3.738,0.373 5.332,1.119c1.594,0.746 3.175,1.84 4.743,3.283l0,-17.718c0,-0.244 0.072,-0.465 0.216,-0.66c0.144,-0.196 0.405,-0.361 0.784,-0.495c0.379,-0.135 0.882,-0.239 1.509,-0.312c0.628,-0.074 1.425,-0.11 2.392,-0.11c0.967,-0 1.764,0.036 2.391,0.11c0.627,0.073 1.124,0.177 1.49,0.312c0.366,0.134 0.627,0.299 0.784,0.495c0.157,0.195 0.235,0.416 0.235,0.66l0,48.129Zm-9.801,-21.864c-1.411,-1.663 -2.763,-2.934 -4.057,-3.815c-1.294,-0.88 -2.646,-1.32 -4.057,-1.32c-1.281,-0 -2.385,0.299 -3.313,0.898c-0.928,0.6 -1.673,1.4 -2.235,2.403c-0.561,1.003 -0.98,2.122 -1.254,3.357c-0.274,1.235 -0.412,2.5 -0.412,3.796c0,1.37 0.118,2.703 0.353,3.999c0.235,1.296 0.621,2.452 1.157,3.466c0.535,1.015 1.248,1.828 2.136,2.44c0.889,0.611 2.013,0.917 3.372,0.917c0.679,-0 1.339,-0.092 1.979,-0.275c0.641,-0.184 1.294,-0.483 1.96,-0.899c0.667,-0.416 1.353,-0.96 2.059,-1.632c0.705,-0.673 1.476,-1.498 2.312,-2.476l0,-10.859Z" style="fill:#1a74ce;fill-rule:nonzero;"/></g></g><defs><linearGradient id="_Linear2" x1="0" y1="0" x2="1" y2="0" gradientUnits="userSpaceOnUse" gradientTransform="matrix(9.61348e-15,157,-157,9.61348e-15,-0.0427105,-0.0436256)"><stop offset="0" style="stop-color:#54beff;stop-opacity:1"/><stop offset="1" style="stop-color:#1a74ce;stop-opacity:1"/></linearGradient></defs></svg>