<?xml version="1.0" encoding="UTF-8" standalone="no"?>
<!DOCTYPE svg PUBLIC "-//W3C//DTD SVG 1.1//EN" "http://www.w3.org/Graphics/SVG/1.1/DTD/svg11.dtd">
<svg width="100%" height="100%" viewBox="0 0 1000 1000" version="1.1" xmlns="http://www.w3.org/2000/svg" xmlns:xlink="http://www.w3.org/1999/xlink" xml:space="preserve" xmlns:serif="http://www.serif.com/" style="fill-rule:evenodd;clip-rule:evenodd;stroke-linejoin:round;stroke-miterlimit:2;">
    <g transform="matrix(1.59964,0,0,1.59964,-299.726,-299.886)">
        <g transform="matrix(-0.707104,0.70711,0.70711,0.707104,286.904,651.167)">
            <rect x="-213.922" y="-88.611" width="177.5" height="176.537" style="fill:rgb(77,230,255);"/>
        </g>
        <g transform="matrix(-0.70711,-0.707104,-0.707104,0.70711,713.438,473.806)">
            <rect x="-88.267" y="36.561" width="176.534" height="176.536" style="fill:rgb(77,230,255);"/>
        </g>
        <g transform="matrix(-0.707118,0.707096,0.707096,0.707118,393.21,606.448)">
            <rect x="-107.132" y="-44.374" width="88.753" height="88.748" style="fill:rgb(113,160,255);"/>
        </g>
        <g transform="matrix(-0.707107,-0.707107,-0.707107,0.707107,588.609,348.976)">
            <rect x="-88.269" y="36.563" width="176.538" height="176.535" style="fill:rgb(0,179,234);"/>
        </g>
        <g transform="matrix(-0.707118,-0.707095,-0.707095,0.707118,606.305,518.18)">
            <rect x="-43.893" y="18.18" width="87.784" height="87.785" style="fill:rgb(113,160,255);"/>
        </g>
        <g transform="matrix(-0.707107,-0.707107,-0.707107,0.707107,543.892,455.284)">
            <rect x="-44.718" y="18.521" width="88.75" height="87.786" style="fill:rgb(55,91,239);"/>
        </g>
    </g>
</svg>
