<?xml version="1.0" encoding="UTF-8" standalone="no"?>
<!DOCTYPE svg PUBLIC "-//W3C//DTD SVG 1.1//EN" "http://www.w3.org/Graphics/SVG/1.1/DTD/svg11.dtd">
<svg width="100%" height="100%" viewBox="0 0 500 500" version="1.1" xmlns="http://www.w3.org/2000/svg" xmlns:xlink="http://www.w3.org/1999/xlink" xml:space="preserve" xmlns:serif="http://www.serif.com/" style="fill-rule:evenodd;clip-rule:evenodd;stroke-linejoin:round;stroke-miterlimit:1.5;">
    <g>
        <path d="M283.65,127.133L216.35,127.133L74.475,372.867L177.802,372.867L250,247.817L322.198,372.867L425.525,372.867L283.65,127.133Z" style="fill:rgb(19,100,221);"/>
        <g>
            <path d="M53.69,360.867C47.067,372.339 51.004,387.029 62.475,393.652C73.946,400.275 88.637,396.339 95.26,384.867C101.883,373.396 97.946,358.706 86.475,352.083C75.004,345.46 60.313,349.396 53.69,360.867Z" style="fill:rgb(71,182,255);"/>
            <path d="M195.566,115.133C202.189,103.661 216.879,99.725 228.35,106.348C239.822,112.971 243.758,127.661 237.135,139.133C230.512,150.604 215.822,154.54 204.35,147.917C192.879,141.294 188.943,126.604 195.566,115.133Z" style="fill:rgb(71,182,255);"/>
            <path d="M74.475,372.867L216.35,127.133" style="fill:none;stroke:rgb(71,182,255);stroke-width:20px;"/>
            <path d="M157.018,360.867C150.395,372.339 154.331,387.029 165.802,393.652C177.274,400.275 191.964,396.339 198.587,384.867C205.21,373.396 201.274,358.706 189.802,352.083C178.331,345.46 163.641,349.396 157.018,360.867Z" style="fill:rgb(71,182,255);"/>
            <path d="M229.215,235.817C235.838,224.346 250.529,220.41 262,227.033C273.471,233.656 277.408,248.346 270.785,259.817C264.162,271.289 249.471,275.225 238,268.602C226.529,261.979 222.592,247.289 229.215,235.817Z" style="fill:rgb(71,182,255);"/>
            <path d="M177.802,372.867L250,247.817" style="fill:none;stroke:rgb(71,182,255);stroke-width:20px;"/>
            <path d="M304.434,115.133C297.811,103.661 283.121,99.725 271.65,106.348C260.178,112.971 256.242,127.661 262.865,139.133C269.488,150.604 284.178,154.54 295.65,147.917C307.121,141.294 311.057,126.604 304.434,115.133Z" style="fill:rgb(71,182,255);"/>
            <path d="M446.31,360.867C452.933,372.339 448.996,387.029 437.525,393.652C426.054,400.275 411.363,396.339 404.74,384.867C398.117,373.396 402.054,358.706 413.525,352.083C424.996,345.46 439.687,349.396 446.31,360.867Z" style="fill:rgb(71,182,255);"/>
            <path d="M283.65,127.133L425.525,372.867" style="fill:none;stroke:rgb(71,182,255);stroke-width:20px;"/>
            <path d="M270.785,235.817C264.162,224.346 249.471,220.41 238,227.033C226.529,233.656 222.592,248.346 229.215,259.817C235.838,271.289 250.529,275.225 262,268.602C273.471,261.979 277.408,247.289 270.785,235.817Z" style="fill:rgb(71,182,255);"/>
            <path d="M342.982,360.867C349.605,372.339 345.669,387.029 334.198,393.652C322.726,400.275 308.036,396.339 301.413,384.867C294.79,373.396 298.726,358.706 310.198,352.083C321.669,345.46 336.359,349.396 342.982,360.867Z" style="fill:rgb(71,182,255);"/>
            <path d="M250,247.817L322.198,372.867" style="fill:none;stroke:rgb(71,182,255);stroke-width:20px;"/>
            <circle cx="74.475" cy="372.867" r="24" style="fill:rgb(71,182,255);"/>
            <circle cx="177.802" cy="372.867" r="24" style="fill:rgb(71,182,255);"/>
            <path d="M74.475,372.867L177.802,372.867" style="fill:none;stroke:rgb(71,182,255);stroke-width:20px;"/>
            <circle cx="216.35" cy="127.133" r="24" style="fill:rgb(71,182,255);"/>
            <circle cx="283.65" cy="127.133" r="24" style="fill:rgb(71,182,255);"/>
            <path d="M216.35,127.133L283.65,127.133" style="fill:none;stroke:rgb(71,182,255);stroke-width:20px;"/>
            <circle cx="322.198" cy="372.867" r="24" style="fill:rgb(71,182,255);"/>
            <circle cx="425.525" cy="372.867" r="24" style="fill:rgb(71,182,255);"/>
            <path d="M322.198,372.867L425.525,372.867" style="fill:none;stroke:rgb(71,182,255);stroke-width:20px;"/>
        </g>
    </g>
    <g>
        <path d="M65.376,367.981L210.483,116.65L289.517,116.65L434.624,367.981L425.943,383.017L316.582,383.017L250,267.693L183.418,383.017L74.057,383.017L65.376,367.981Z" style="fill:rgb(19,100,221);"/>
        <path d="M65.376,367.981L210.483,116.65L289.517,116.65L434.624,367.981L425.943,383.017L316.582,383.017L250,267.693L183.418,383.017L74.057,383.017L65.376,367.981ZM91.419,362.97L171.843,362.97L241.319,242.633L258.681,242.633L328.157,362.97L408.581,362.97L277.943,136.697L222.057,136.697L91.419,362.97Z" style="fill:rgb(71,182,255);"/>
        <circle cx="216.203" cy="126.673" r="24.057" style="fill:rgb(71,182,255);"/>
        <circle cx="283.671" cy="126.673" r="24.057" style="fill:rgb(71,182,255);"/>
        <circle cx="250" cy="249.833" r="24.057" style="fill:rgb(71,182,255);"/>
        <circle cx="425.943" cy="372.993" r="24.057" style="fill:rgb(71,182,255);"/>
        <circle cx="322.164" cy="373.327" r="24.057" style="fill:rgb(71,182,255);"/>
        <circle cx="177.71" cy="373.327" r="24.057" style="fill:rgb(71,182,255);"/>
        <circle cx="74.057" cy="372.993" r="24.057" style="fill:rgb(71,182,255);"/>
    </g>
</svg>
