<svg width="512" height="512" viewBox="0 0 512 512" xmlns="http://www.w3.org/2000/svg">
  <defs>
    <linearGradient id="tsf-gradient" x1="0" x2="0" y1="0" y2="1">
      <stop offset="0" style="stop-color: rgb(84, 190, 255);"/>
      <stop offset="1" style="stop-color: rgb(26, 116, 206);"/>
    </linearGradient>
  </defs>
  <path d="M 34.297 127.999 C 94.386 23.922 216.52 -21.999 327.004 9.98 C 300.224 24.287 282.002 52.515 282.002 84.999 C 282.002 131.943 320.057 169.998 367.001 169.998 C 411.94 169.998 448.733 135.124 451.794 90.963 C 519.318 171.08 533.116 288.024 477.704 384 C 417.615 488.077 295.481 533.999 184.998 502.02 C 211.777 487.712 229.998 459.485 229.998 427.001 C 229.998 380.057 191.943 342.002 144.999 342.002 C 100.061 342.002 63.268 376.875 60.206 421.035 C -7.316 340.918 -21.114 223.976 34.297 127.999 Z M 144.999 152.003 C 98.055 152.003 60 190.058 60 237.002 C 60 283.946 98.055 322.001 144.999 322.001 C 191.943 322.001 229.998 283.946 229.998 237.002 C 229.998 190.058 191.943 152.003 144.999 152.003 Z M 367.001 189.999 C 320.057 189.999 282.002 228.054 282.002 274.998 C 282.002 321.942 320.057 359.997 367.001 359.997 C 413.945 359.997 452 321.942 452 274.998 C 452 228.054 413.945 189.999 367.001 189.999 Z" 
  fill="url(#tsf-gradient)" />
</svg>