<?xml version="1.0" encoding="UTF-8" standalone="no"?>
<!DOCTYPE svg PUBLIC "-//W3C//DTD SVG 1.1//EN" "http://www.w3.org/Graphics/SVG/1.1/DTD/svg11.dtd">
<svg width="100%" height="100%" viewBox="0 0 1000 1000" version="1.1" xmlns="http://www.w3.org/2000/svg" xmlns:xlink="http://www.w3.org/1999/xlink" xml:space="preserve" xmlns:serif="http://www.serif.com/" style="fill-rule:evenodd;clip-rule:evenodd;stroke-linejoin:round;stroke-miterlimit:2;">
    <g transform="matrix(1.56223,0,0,1.56223,100.067,100.068)">
        <path d="M34.297,127.999C94.386,23.922 216.52,-21.999 327.004,9.98C300.224,24.287 282.002,52.515 282.002,84.999C282.002,131.943 320.057,169.998 367.001,169.998C411.94,169.998 448.733,135.124 451.794,90.963C519.318,171.08 533.116,288.024 477.704,384C417.615,488.077 295.481,533.999 184.998,502.02C211.777,487.712 229.998,459.485 229.998,427.001C229.998,380.057 191.943,342.002 144.999,342.002C100.061,342.002 63.268,376.875 60.206,421.035C-7.316,340.918 -21.114,223.976 34.297,127.999ZM144.999,152.003C98.055,152.003 60,190.058 60,237.002C60,283.946 98.055,322.001 144.999,322.001C191.943,322.001 229.998,283.946 229.998,237.002C229.998,190.058 191.943,152.003 144.999,152.003ZM367.001,189.999C320.057,189.999 282.002,228.054 282.002,274.998C282.002,321.942 320.057,359.997 367.001,359.997C413.945,359.997 452,321.942 452,274.998C452,228.054 413.945,189.999 367.001,189.999Z" style="fill:url(#_Linear1);fill-rule:nonzero;"/>
    </g>
    <defs>
        <linearGradient id="_Linear1" x1="0" y1="0" x2="1" y2="0" gradientUnits="userSpaceOnUse" gradientTransform="matrix(3.13563e-14,512.087,-512.087,3.13563e-14,-0.0427105,-0.0436256)"><stop offset="0" style="stop-color:rgb(84,190,255);stop-opacity:1"/><stop offset="1" style="stop-color:rgb(26,116,206);stop-opacity:1"/></linearGradient>
    </defs>
</svg>
